<svg width="60" height="64" viewBox="0 0 60 64" fill="none" xmlns="http://www.w3.org/2000/svg">
  <path d="M59.5454 44.1952L42.659 27.1851L44.5332 17.9541C45.0168 18.1429 45.5309 18.2416 46.05 18.2453H46.0628C48.4473 18.2735 50.4032 16.3633 50.4314 13.9788C50.4597 11.5943 48.5494 9.6384 46.1649 9.61013C43.7804 9.582 41.8245 11.4921 41.7962 13.8767C41.7902 14.3869 41.8746 14.8941 42.0457 15.3749L32.1257 16.5856L15.9444 0.32C15.7458 0.117467 15.4749 0.00226667 15.1913 0C14.9113 0.00146667 14.6432 0.112933 14.4446 0.3104L11.4196 3.3184C11.0032 3.73493 11.0032 4.41013 11.4196 4.82667L13.0473 6.47787C6.74116 18.0737 8.78943 32.4335 18.0862 41.8037C18.1716 41.8853 18.2705 41.9513 18.3785 41.9989C18.3113 42.3599 18.2762 42.7261 18.274 43.0933V55.4667H5.47396C2.52996 55.4701 0.144092 57.856 0.140625 60.8V62.9333C0.140625 63.5224 0.618225 64 1.20729 64H50.274C50.863 64 51.3406 63.5224 51.3406 62.9333V60.8C51.3372 57.856 48.9513 55.4701 46.0073 55.4667H33.2073V49.9829C35.2125 50.4035 37.2556 50.6179 39.3044 50.6229C44.2206 50.6176 49.0586 49.392 53.3844 47.056L55.0206 48.7019C55.2192 48.9044 55.4901 49.0196 55.7737 49.0219C56.0537 49.0204 56.3218 48.9089 56.5204 48.7115L59.5454 45.7035C59.9618 45.2869 59.9618 44.6117 59.5454 44.1952ZM44.5588 12.4661C45.3941 11.6352 46.7449 11.6389 47.5757 12.4743C48.4066 13.3096 48.4029 14.6604 47.5676 15.4912C47.1677 15.8889 46.6266 16.1121 46.0626 16.112H46.0562C44.8781 16.1059 43.9278 15.1459 43.934 13.9676C43.9369 13.4036 44.163 12.8639 44.5629 12.4661H44.5588ZM42.0478 19.4752L40.851 25.3664L38.5001 23.0016L42.0478 19.4752ZM40.8361 17.6715L36.9961 21.4891L34.0254 18.5024L40.8361 17.6715ZM46.0073 57.6C47.7746 57.6 49.2073 59.0327 49.2073 60.8V61.8667H2.27396V60.8C2.27396 59.0327 3.70663 57.6 5.47396 57.6H46.0073ZM31.074 53.3333V55.4667H20.4073V53.3333H31.074ZM20.4073 51.2V43.0933C20.4073 40.5056 22.7998 38.4 25.7406 38.4C28.6814 38.4 31.074 40.5056 31.074 43.0933V51.2H20.4073ZM33.2073 47.808V43.0933C33.2073 39.3291 29.858 36.2667 25.7406 36.2667C23.0785 36.2259 20.5892 37.5809 19.1785 39.8389C11.063 31.2913 9.23556 18.5485 14.6213 8.06467L51.8249 45.4816C46.0801 48.404 39.4946 49.2268 33.2073 47.808ZM55.7854 46.4405L54.2825 44.9291L15.1806 5.59147L13.6713 4.07893L15.1806 2.57493L31.0505 18.5344C31.058 18.5344 31.0622 18.5483 31.0697 18.5536L57.299 44.9365L55.7854 46.4405Z" fill="#2E2F42" />
</svg>