<svg width="64" height="50" viewBox="0 0 64 50" fill="none" xmlns="http://www.w3.org/2000/svg">
  <path d="M3.19833 49.5817H54.3715C56.1378 49.5817 57.5699 48.1496 57.5699 46.3833V42.1189C57.5699 40.3526 56.1378 38.9206 54.3715 38.9206H53.3054V12.334L59.3611 6.59741C60.7666 7.29027 62.4678 6.86966 63.3876 5.60001C64.308 4.33088 64.1789 2.58336 63.0826 1.46311C61.9863 0.342867 60.2424 0.175767 58.953 1.06749C57.6641 1.95973 57.206 3.65103 57.8681 5.07164L53.3054 9.39698V6.93733C53.3054 5.17107 51.8734 3.73901 50.1071 3.73901H7.46276C5.6965 3.73901 4.26443 5.17107 4.26443 6.93733V38.9206H3.19833C1.43206 38.9206 0 40.3526 0 42.1189V46.3833C0 48.1496 1.43206 49.5817 3.19833 49.5817ZM60.7682 2.6729C61.3569 2.6729 61.8343 3.15025 61.8343 3.73901C61.8343 4.32776 61.3569 4.80511 60.7682 4.80511C60.1794 4.80511 59.7021 4.32776 59.7021 3.73901C59.7021 3.15025 60.1794 2.6729 60.7682 2.6729ZM6.39665 6.93733C6.39665 6.34858 6.874 5.87122 7.46276 5.87122H50.1071C50.6958 5.87122 51.1732 6.34858 51.1732 6.93733V11.4147L49.041 13.4407V9.06955C49.041 8.48079 48.5636 8.00344 47.9749 8.00344H9.59498C9.00622 8.00344 8.52887 8.48079 8.52887 9.06955V35.7223C8.52887 36.311 9.00622 36.7884 9.59498 36.7884H47.9749C48.5636 36.7884 49.041 36.311 49.041 35.7223V16.3735L51.1732 14.3532V38.9206H6.39665V6.93733ZM15.9916 20.7967C14.5492 20.7926 13.2826 21.7535 12.899 23.144C12.5153 24.5344 13.1093 26.0091 14.3498 26.7452C15.5898 27.4813 17.1697 27.2965 18.2061 26.2933L21.912 28.1528C22.3425 28.3683 22.8646 28.2673 23.1847 27.9076L31.0624 19.0451L38.8062 24.8477C39.2216 25.159 39.8016 25.1257 40.1784 24.7691L46.9088 18.3938V34.6562H10.6611V10.1357H46.9088V15.4563L39.3658 22.5994L31.5569 16.7452C31.1134 16.4131 30.4892 16.4756 30.1207 16.8894L22.1348 25.8748L19.1493 24.3818C19.1712 24.2538 19.1847 24.1247 19.19 23.9951C19.19 22.2288 17.7579 20.7967 15.9916 20.7967ZM17.0577 23.9951C17.0577 24.5838 16.5804 25.0612 15.9916 25.0612C15.4029 25.0612 14.9255 24.5838 14.9255 23.9951C14.9255 23.4063 15.4029 22.929 15.9916 22.929C16.5804 22.929 17.0577 23.4063 17.0577 23.9951ZM23.4544 41.0528H34.1155V42.1189C34.1155 42.7077 33.6381 43.185 33.0494 43.185H24.5205C23.9317 43.185 23.4544 42.7077 23.4544 42.1189V41.0528ZM2.13222 42.1189C2.13222 41.5302 2.60957 41.0528 3.19833 41.0528H21.3222V42.1189C21.3222 43.8852 22.7542 45.3172 24.5205 45.3172H33.0494C34.8156 45.3172 36.2477 43.8852 36.2477 42.1189V41.0528H54.3715C54.9603 41.0528 55.4376 41.5302 55.4376 42.1189V46.3833C55.4376 46.9721 54.9603 47.4495 54.3715 47.4495H3.19833C2.60957 47.4495 2.13222 46.9721 2.13222 46.3833V42.1189Z" fill="#2E2F42" />
</svg>