<svg width="16" height="16" viewBox="0 0 16 16" fill="none" xmlns="http://www.w3.org/2000/svg">
  <g clip-path="url(#clip0_349_276)">
    <path d="M15.9968 16.0014V16.0008H16.0008V10.1328C16.0008 7.26211 15.3828 5.05078 12.0268 5.05078C10.4135 5.05078 9.33083 5.93611 8.88883 6.77545H8.84216V5.31878H5.66016V16.0008H8.97349V10.7114C8.97349 9.31878 9.23749 7.97211 10.9622 7.97211C12.6615 7.97211 12.6868 9.56145 12.6868 10.8008V16.0014H15.9968Z" fill="#F4F4FD" />
    <path d="M0.263672 5.31641H3.58101V15.9984H0.263672V5.31641Z" fill="#F4F4FD" />
    <path d="M1.92133 0C0.860667 0 0 0.860667 0 1.92133C0 2.982 0.860667 3.86067 1.92133 3.86067C2.982 3.86067 3.84267 2.982 3.84267 1.92133C3.842 0.860667 2.98133 0 1.92133 0V0Z" fill="#F4F4FD" />
  </g>
  <defs>
    <clipPath id="clip0_349_276">
      <rect width="16" height="16" fill="white" />
    </clipPath>
  </defs>
</svg>